<?xml version="1.0" encoding="utf-8"?>
<!-- Generator: Adobe Illustrator 25.3.1, SVG Export Plug-In . SVG Version: 6.00 Build 0)  -->
<svg version="1.1" id="Layer_2" xmlns="http://www.w3.org/2000/svg" xmlns:xlink="http://www.w3.org/1999/xlink" x="0px" y="0px"
	 viewBox="0 0 189.5 27" enable-background="new 0 0 189.5 27" xml:space="preserve">
<g>
	<g>
		<path fill="#FFFFFF" d="M27,27H0V0h27V27L27,27z M12.6,23.9c0,0.2,0.4,0.3,0.5,0l0.9-7.5h-2.3L12.6,23.9L12.6,23.9z M14.8,15.9
			v-1.1h-3.9v1.1H14.8L14.8,15.9z M13.7,14.2c4.9,0.2,5.3-4.3,5.3-6c0-0.1,0-0.1-0.1,0c-0.1,0.4-0.8,1.6-2.6,2.4
			C14.8,11.2,13.8,12.7,13.7,14.2L13.7,14.2z M13.2,13.9c0.8-3.7,3.8-3.8,4.1-4.6c0.4-1.1-0.4-3.1-0.6-3.3c0,0,0,0-0.1,0
			c-0.4,0.9-1.1,1.8-1.6,2.2C14.4,8.7,11.8,10.7,13.2,13.9C13.1,13.9,13.2,13.9,13.2,13.9z M12.6,14c-1.7-3.5,1.7-5.8,2.2-6.3
			c0.1-0.1,0.1-0.1,0.1-0.2c0-1.1-0.6-2.9-0.8-3.2H14c-0.3,1.1-1.8,2.7-2.1,3.1C9.3,10.5,9.9,12.3,12.6,14
			C12.6,14.1,12.7,14,12.6,14z M11.9,14.1c-2.8-1.7-2.5-4-1.3-5.7c0,0,0-0.1,0-0.2c0-0.4-0.5-1.5-0.7-1.7c0-0.1-0.1-0.1-0.1,0
			c0,0.5-0.6,1.7-1.4,3C7.6,10.9,7.6,14.1,11.9,14.1C11.9,14.2,11.9,14.2,11.9,14.1z"/>
		<g>
			<path fill="#FFFFFF" d="M34,5.7h3.1l7.2,9.5V5.7h3.3v15.4h-2.9l-7.5-9.8v9.8h-3.3V5.7H34z"/>
			<path fill="#FFFFFF" d="M55.3,15.1l-5.9-9.3h4l3.7,6.2l3.7-6.2h3.8l-5.9,9.3v6h-3.4C55.3,21.1,55.3,15.1,55.3,15.1z"/>
			<path fill="#FFFFFF" d="M66,14.5V5.7h3.4v8.7c0,2.5,1.3,3.8,3.3,3.8c2.1,0,3.3-1.3,3.3-3.7V5.7h3.4v8.7c0,4.7-2.6,6.9-6.7,6.9
				C68.5,21.4,66,19.1,66,14.5z"/>
		</g>
	</g>
	<rect x="86.4" fill="#FFFFFF" width="0.4" height="27"/>
</g>
<g enable-background="new    ">
	<path fill="#FFFFFF" d="M94.4,14.1V5.9h1V14c0,3.3,1.8,5.2,4.7,5.2c2.8,0,4.7-1.7,4.7-5.1V5.9h1V14c0,4-2.3,6.2-5.7,6.2
		C96.7,20.1,94.4,18,94.4,14.1z"/>
</g>
<g enable-background="new    ">
	<path fill="#FFFFFF" d="M109.7,5.3h1v14.6h-1V5.3z"/>
</g>
<g enable-background="new    ">
	<path fill="#FFFFFF" d="M115.1,17.3v-6.7h-1.5V9.7h1.5V6.4h1v3.3h3.6v0.9h-3.6v6.6c0,1.5,0.9,2,2,2c0.5,0,0.9-0.1,1.5-0.4v0.9
		c-0.5,0.2-1,0.4-1.7,0.4C116.4,20.1,115.1,19.2,115.1,17.3z"/>
</g>
<g enable-background="new    ">
	<path fill="#FFFFFF" d="M122.5,9.7h1v2.9c0.8-1.8,2.5-3.1,4.5-3.1v1.1h-0.1c-2.4,0-4.4,1.8-4.4,5.1v4.2h-1L122.5,9.7L122.5,9.7z"/>
</g>
<g enable-background="new    ">
	<path fill="#FFFFFF" d="M128.7,16.9L128.7,16.9c0-2.2,1.8-3.4,4.5-3.4c1.4,0,2.4,0.2,3.4,0.4v-0.4c0-2.1-1.3-3.1-3.4-3.1
		c-1.2,0-2.3,0.3-3.2,0.8l-0.4-0.9c1.1-0.5,2.2-0.9,3.6-0.9c1.4,0,2.5,0.4,3.2,1.1c0.7,0.7,1,1.6,1,2.9v6.4h-1v-1.7
		c-0.7,1-2,1.9-3.9,1.9C130.7,20.1,128.7,19.1,128.7,16.9z M136.6,16.1v-1.2c-0.9-0.2-2-0.5-3.5-0.5c-2.2,0-3.4,1-3.4,2.4v0
		c0,1.5,1.4,2.3,3,2.3C134.8,19.2,136.6,17.9,136.6,16.1z"/>
</g>
<g enable-background="new    ">
	<path fill="#FFFFFF" d="M139,5.9h1.2l5.5,12.9l5.5-12.9h1.1L146.1,20h-0.9L139,5.9z"/>
</g>
<g enable-background="new    ">
	<path fill="#FFFFFF" d="M154,5.7h1.2V7H154V5.7z M154.2,9.7h1v10.2h-1V9.7z"/>
</g>
<g enable-background="new    ">
	<path fill="#FFFFFF" d="M157.2,14.8L157.2,14.8c0-2.9,2.2-5.4,5.3-5.4c3,0,5.2,2.4,5.2,5.3v0c0,2.9-2.2,5.3-5.3,5.3
		C159.4,20.1,157.2,17.7,157.2,14.8z M166.6,14.8L166.6,14.8c0-2.5-1.8-4.5-4.2-4.5c-2.4,0-4.2,2-4.2,4.4v0c0,2.5,1.8,4.4,4.2,4.4
		C164.9,19.2,166.6,17.2,166.6,14.8z"/>
</g>
<g enable-background="new    ">
	<path fill="#FFFFFF" d="M169.9,5.3h1v14.6h-1V5.3z"/>
</g>
<g enable-background="new    ">
	<path fill="#FFFFFF" d="M173,14.8L173,14.8c0-3,2.1-5.4,4.8-5.4c2.9,0,4.7,2.3,4.7,5.3c0,0.2,0,0.2,0,0.4H174c0.2,2.5,2,4,4,4
		c1.6,0,2.7-0.7,3.5-1.6l0.7,0.6c-1,1.1-2.3,1.9-4.2,1.9C175.3,20.1,173,18,173,14.8z M181.5,14.3c-0.1-2.1-1.3-4-3.7-4
		c-2,0-3.6,1.7-3.8,4H181.5z"/>
</g>
<g enable-background="new    ">
	<path fill="#FFFFFF" d="M184.9,17.3v-6.7h-1.5V9.7h1.5V6.4h1v3.3h3.6v0.9h-3.6v6.6c0,1.5,0.9,2,2,2c0.5,0,0.9-0.1,1.5-0.4v0.9
		c-0.5,0.2-1,0.4-1.7,0.4C186.2,20.1,184.9,19.2,184.9,17.3z"/>
</g>
</svg>
